<svg width="30" height="30" viewBox="0 0 30 30" fill="none" xmlns="http://www.w3.org/2000/svg">
<path d="M15 2.5C8.1 2.5 2.5 8.1 2.5 15C2.5 21.9 8.1 27.5 15 27.5C21.9 27.5 27.5 21.9 27.5 15C27.5 8.1 21.9 2.5 15 2.5ZM15 6.25C17.075 6.25 18.75 7.925 18.75 10C18.75 12.075 17.075 13.75 15 13.75C12.925 13.75 11.25 12.075 11.25 10C11.25 7.925 12.925 6.25 15 6.25ZM15 24C13.5148 24 12.0527 23.6325 10.7441 22.9302C9.43547 22.2279 8.32097 21.2126 7.5 19.975C7.5375 17.4875 12.5 16.125 15 16.125C17.4875 16.125 22.4625 17.4875 22.5 19.975C21.679 21.2126 20.5645 22.2279 19.2559 22.9302C17.9473 23.6325 16.4852 24 15 24Z" fill="black"/>
</svg>
