<svg width="30" height="30" viewBox="0 0 30 30" fill="none" xmlns="http://www.w3.org/2000/svg">
<path d="M14.079 0.31603C14.3423 0.111205 14.6664 0 15 0C15.3336 0 15.6577 0.111205 15.921 0.31603L28.263 9.9157C28.8043 10.3367 29.2421 10.8759 29.5432 11.492C29.8442 12.1081 30.0005 12.7849 30 13.4706V27.0001C30 27.7957 29.6839 28.5588 29.1213 29.1213C28.5587 29.6839 27.7956 30 27 30H21C20.2044 30 19.4413 29.6839 18.8787 29.1213C18.3161 28.5588 18 27.7957 18 27.0001V18.0004H12V27.0001C12 27.7957 11.6839 28.5588 11.1213 29.1213C10.5587 29.6839 9.79565 30 9 30H3C2.20435 30 1.44129 29.6839 0.87868 29.1213C0.31607 28.5588 0 27.7957 0 27.0001V13.4706C0 12.0786 0.642 10.7707 1.74 9.9157L14.079 0.31603V0.31603ZM15 3.39992L3.579 12.2826C3.39818 12.4233 3.25198 12.6035 3.15161 12.8094C3.05125 13.0153 2.99938 13.2415 3 13.4706V27.0001H9V18.0004C9 17.2048 9.31607 16.4418 9.87868 15.8792C10.4413 15.3166 11.2044 15.0005 12 15.0005H18C18.7956 15.0005 19.5587 15.3166 20.1213 15.8792C20.6839 16.4418 21 17.2048 21 18.0004V27.0001H27V13.4706C27.0006 13.2415 26.9488 13.0153 26.8484 12.8094C26.748 12.6035 26.6018 12.4233 26.421 12.2826L15 3.40292V3.39992Z" fill="black"/>
</svg>
