<svg width="32" height="32" viewBox="0 0 32 32" fill="none" xmlns="http://www.w3.org/2000/svg">
<path d="M24 2.68002L7.99998 2.66669C6.51998 2.66669 5.33331 3.85335 5.33331 5.33335V26.6667C5.33331 28.1467 6.51998 29.3334 7.99998 29.3334H24C25.48 29.3334 26.6666 28.1467 26.6666 26.6667V5.33335C26.6666 3.85335 25.48 2.68002 24 2.68002ZM24 26.6667H7.99998L7.98665 5.33335H24V26.6667Z" fill="black"/>
<path d="M10.6666 9.33335C11.403 9.33335 12 8.7364 12 8.00002C12 7.26364 11.403 6.66669 10.6666 6.66669C9.93027 6.66669 9.33331 7.26364 9.33331 8.00002C9.33331 8.7364 9.93027 9.33335 10.6666 9.33335Z" fill="black"/>
<path d="M14.6666 9.33335C15.403 9.33335 16 8.7364 16 8.00002C16 7.26364 15.403 6.66669 14.6666 6.66669C13.9303 6.66669 13.3333 7.26364 13.3333 8.00002C13.3333 8.7364 13.9303 9.33335 14.6666 9.33335Z" fill="black"/>
<path d="M16 25.3333C19.68 25.3333 22.6666 22.3467 22.6666 18.6667C22.6666 14.9867 19.68 12 16 12C12.32 12 9.33331 14.9867 9.33331 18.6667C9.33331 22.3467 12.32 25.3333 16 25.3333ZM19.1466 15.52C20.88 17.2533 20.88 20.08 19.1466 21.8133C17.4133 23.5467 14.5866 23.5467 12.8533 21.8133L19.1466 15.52Z" fill="black"/>
</svg>
