<svg width="25" height="31" viewBox="0 0 25 31" fill="none" xmlns="http://www.w3.org/2000/svg">
<path d="M8.07812 22.9865C9.25205 24.1477 10.8422 24.7997 12.5 24.7997C14.1578 24.7997 15.748 24.1477 16.9219 22.9865C18.0924 21.822 18.7497 20.2445 18.7497 18.6C18.7497 16.9555 18.0924 15.378 16.9219 14.2135L8.07812 22.9865ZM21.875 0.0155L3.125 0C1.39062 0 0 1.3795 0 3.1V27.9C0 29.6205 1.39062 31 3.125 31H21.875C23.6094 31 25 29.6205 25 27.9V3.1C25 1.3795 23.6094 0.0155 21.875 0.0155ZM9.375 3.1C10.2344 3.1 10.9375 3.7975 10.9375 4.65C10.9375 5.5025 10.2344 6.2 9.375 6.2C8.51562 6.2 7.8125 5.5025 7.8125 4.65C7.8125 3.7975 8.51562 3.1 9.375 3.1ZM4.6875 3.1C5.54688 3.1 6.25 3.7975 6.25 4.65C6.25 5.5025 5.54688 6.2 4.6875 6.2C3.82812 6.2 3.125 5.5025 3.125 4.65C3.125 3.7975 3.82812 3.1 4.6875 3.1ZM12.5 27.9C7.32812 27.9 3.125 23.7305 3.125 18.6C3.125 13.4695 7.32812 9.3 12.5 9.3C17.6719 9.3 21.875 13.4695 21.875 18.6C21.875 23.7305 17.6719 27.9 12.5 27.9Z" fill="black"/>
</svg>
