<svg width="30" height="30" viewBox="0 0 30 30" fill="none" xmlns="http://www.w3.org/2000/svg">
<path d="M12.5 6.66669H20V8.33335H12.5V6.66669Z" fill="black"/>
<path d="M12.5 10H20V11.6667H12.5V10Z" fill="black"/>
<path d="M12.5 13.3333H20V15H12.5V13.3333Z" fill="black"/>
<path d="M12.5 16.6667H20V18.3334H12.5V16.6667Z" fill="black"/>
<path d="M12.5 20H20V21.6667H12.5V20Z" fill="black"/>
<path d="M9.16669 6.66669H10.8334V8.33335H9.16669V6.66669Z" fill="black"/>
<path d="M9.16669 10H10.8334V11.6667H9.16669V10Z" fill="black"/>
<path d="M9.16669 13.3333H10.8334V15H9.16669V13.3333Z" fill="black"/>
<path d="M9.16669 16.6667H10.8334V18.3334H9.16669V16.6667Z" fill="black"/>
<path d="M9.16669 20H10.8334V21.6667H9.16669V20Z" fill="black"/>
<path d="M23.3333 1.66669H6.66667C6.22464 1.66669 5.80072 1.84228 5.48816 2.15484C5.17559 2.4674 5 2.89133 5 3.33335V26.6667C5 27.1087 5.17559 27.5326 5.48816 27.8452C5.80072 28.1578 6.22464 28.3334 6.66667 28.3334H23.3333C23.7754 28.3334 24.1993 28.1578 24.5118 27.8452C24.8244 27.5326 25 27.1087 25 26.6667V3.33335C25 2.89133 24.8244 2.4674 24.5118 2.15484C24.1993 1.84228 23.7754 1.66669 23.3333 1.66669ZM23.3333 26.6667H6.66667V3.33335H23.3333V26.6667Z" fill="black"/>
</svg>
