<svg width="36" height="37" viewBox="0 0 36 37" fill="none" xmlns="http://www.w3.org/2000/svg">
<path d="M28 2.82758H8C7.46957 2.82758 6.96086 3.03829 6.58579 3.41336C6.21071 3.78843 6 4.29714 6 4.82758V32.8276C6 33.358 6.21071 33.8667 6.58579 34.2418C6.96086 34.6169 7.46957 34.8276 8 34.8276H28C28.5304 34.8276 29.0391 34.6169 29.4142 34.2418C29.7893 33.8667 30 33.358 30 32.8276V4.82758C30 4.29714 29.7893 3.78843 29.4142 3.41336C29.0391 3.03829 28.5304 2.82758 28 2.82758ZM13 26.8276H11V24.8276H13V26.8276ZM13 22.8276H11V20.8276H13V22.8276ZM13 18.8276H11V16.8276H13V18.8276ZM13 14.8276H11V12.8276H13V14.8276ZM13 10.8276H11V8.82758H13V10.8276ZM25 26.8276H15V24.8276H25V26.8276ZM25 22.8276H15V20.8276H25V22.8276ZM25 18.8276H15V16.8276H25V18.8276ZM25 14.8276H15V12.8276H25V14.8276ZM25 10.8276H15V8.82758H25V10.8276Z" fill="black"/>
</svg>
